<svg width="356" height="270" viewBox="0 0 356 270" fill="none" xmlns="http://www.w3.org/2000/svg">
<path d="M231 135C231 181.234 193.102 219 146 219C98.8975 219 61 181.234 61 135C61 88.7656 98.8975 51 146 51C193.102 51 231 88.7656 231 135Z" stroke="white" stroke-width="34"/>
<path d="M168 161C225.399 164.132 215.077 223.634 273 237" stroke="white" stroke-width="33"/>
<line x1="273.5" y1="34" x2="273.5" y2="113" stroke="#27DDDD" stroke-width="19"/>
<line x1="273.5" y1="34" x2="273.5" y2="113" stroke="#27DDDD" stroke-width="19"/>
<line x1="273.5" y1="34" x2="273.5" y2="113" stroke="#27DDDD" stroke-width="19"/>
<line x1="233" y1="72.5" x2="313" y2="72.5" stroke="#27DDDD" stroke-width="19"/>
<line x1="233" y1="72.5" x2="313" y2="72.5" stroke="#27DDDD" stroke-width="19"/>
<line x1="233" y1="72.5" x2="313" y2="72.5" stroke="#27DDDD" stroke-width="19"/>
</svg>
